<svg width="33" height="35" viewBox="0 0 33 35" fill="none" xmlns="http://www.w3.org/2000/svg">
<path d="M31.7285 15.8163C32.0169 16.2728 32.1708 16.8098 32.1708 17.3588C32.1708 18.0952 31.8942 18.8016 31.402 19.3225C30.9098 19.8428 30.2422 20.1354 29.5462 20.1354C29.027 20.1354 28.5196 19.9729 28.0879 19.6674C27.6564 19.3625 27.32 18.9288 27.1213 18.4217C26.9226 17.9142 26.8707 17.356 26.9719 16.8171C27.0732 16.2786 27.3231 15.7839 27.6904 15.3956C28.0574 15.0074 28.525 14.743 29.0342 14.6357C29.5432 14.5287 30.0709 14.5836 30.5506 14.7939C31.0301 15.0039 31.44 15.3599 31.7285 15.8163Z" fill="white"/>
<path d="M31.7285 29.866C32.0169 30.3226 32.1708 30.8596 32.1708 31.4085C32.1708 32.1451 31.8942 32.8513 31.402 33.3722C30.9098 33.8926 30.2422 34.1852 29.5462 34.1852C29.027 34.1852 28.5196 34.0226 28.0879 33.7173C27.6564 33.4122 27.32 32.9786 27.1213 32.4715C26.9226 31.964 26.8707 31.4059 26.9719 30.8669C27.0732 30.3284 27.3231 29.8337 27.6904 29.4455C28.0574 29.0572 28.525 28.7929 29.0342 28.6854C29.5432 28.5784 30.0709 28.6333 30.5506 28.8438C31.0301 29.0537 31.44 29.4096 31.7285 29.866Z" fill="white"/>
<path d="M32.1707 0.151184H25.8717V6.81482H32.1707V0.151184Z" fill="white"/>
<path d="M18.6391 29.866C18.9274 30.3226 19.0814 30.8596 19.0814 31.4085C19.0814 32.1451 18.8048 32.8513 18.3126 33.3722C17.8204 33.8926 17.1528 34.1852 16.4567 34.1852C15.9376 34.1852 15.4302 34.0226 14.9985 33.7173C14.567 33.4122 14.2306 32.9786 14.0319 32.4715C13.8332 31.964 13.7813 31.4059 13.8825 30.8669C13.9838 30.3284 14.2337 29.8337 14.6008 29.4455C14.9678 29.0572 15.4354 28.7929 15.9447 28.6854C16.4538 28.5784 16.9815 28.6333 17.4611 28.8438C17.9406 29.0537 18.3506 29.4096 18.6391 29.866Z" fill="white"/>
<path d="M19.6061 14.0245H13.3072V20.6881H19.6061V14.0245Z" fill="white"/>
<path d="M19.7808 0.151184H13.1319V7.18502H19.7808V0.151184Z" fill="white"/>
<path d="M7.01952 0.158325H0.0206909V7.56237H7.01952V0.158325Z" fill="white"/>
<path d="M6.29895 27.5237H0L0 34.1874H6.29895V27.5237Z" fill="white"/>
<path d="M6.64888 13.841H0L0 20.8748H6.64888V13.841Z" fill="white"/>
</svg>
