<svg width="54" height="54" viewBox="0 0 54 54" fill="none" xmlns="http://www.w3.org/2000/svg">
<circle cx="27" cy="27" r="27" fill="white"/>
<path d="M36.7246 27.0313C36.9039 27.2945 36.9996 27.6042 36.9996 27.9208C36.9996 28.3455 36.8276 28.7527 36.5217 29.0531C36.2157 29.3532 35.8007 29.5219 35.368 29.5219C35.0452 29.5219 34.7298 29.4282 34.4614 29.252C34.1932 29.0762 33.984 28.8261 33.8605 28.5337C33.737 28.241 33.7048 27.9192 33.7677 27.6085C33.8306 27.2979 33.986 27.0126 34.2143 26.7888C34.4424 26.5649 34.7331 26.4125 35.0497 26.3506C35.3661 26.2888 35.6942 26.3205 35.9924 26.4418C36.2905 26.5629 36.5453 26.7681 36.7246 27.0313Z" fill="black"/>
<path d="M36.7246 35.1344C36.9039 35.3977 36.9996 35.7073 36.9996 36.0238C36.9996 36.4486 36.8276 36.8558 36.5217 37.1561C36.2157 37.4562 35.8007 37.6249 35.368 37.6249C35.0452 37.6249 34.7298 37.5312 34.4614 37.3551C34.1932 37.1792 33.984 36.9292 33.8605 36.6368C33.737 36.3441 33.7048 36.0223 33.7677 35.7115C33.8306 35.401 33.986 35.1157 34.2143 34.8919C34.4424 34.6679 34.7331 34.5156 35.0497 34.4536C35.3661 34.3919 35.6942 34.4235 35.9924 34.5449C36.2905 34.6659 36.5453 34.8712 36.7246 35.1344Z" fill="black"/>
<path d="M36.9988 18H33.083V21.8425H36.9988V18Z" fill="black"/>
<path d="M28.5869 35.1344C28.7662 35.3977 28.8619 35.7073 28.8619 36.0238C28.8619 36.4486 28.6899 36.8558 28.384 37.1561C28.078 37.4562 27.663 37.6249 27.2302 37.6249C26.9075 37.6249 26.5921 37.5312 26.3237 37.3551C26.0555 37.1792 25.8463 36.9292 25.7228 36.6368C25.5993 36.3441 25.5671 36.0223 25.63 35.7115C25.693 35.401 25.8483 35.1157 26.0765 34.8919C26.3047 34.6679 26.5954 34.5156 26.9119 34.4536C27.2284 34.3919 27.5565 34.4235 27.8546 34.5449C28.1527 34.6659 28.4076 34.8712 28.5869 35.1344Z" fill="black"/>
<path d="M29.1883 25.9995H25.2725V29.842H29.1883V25.9995Z" fill="black"/>
<path d="M29.2974 18H25.1641V22.056H29.2974V18Z" fill="black"/>
<path d="M21.3646 18.0039H17.0137V22.2733H21.3646V18.0039Z" fill="black"/>
<path d="M20.9158 33.7822H17V37.6247H20.9158V33.7822Z" fill="black"/>
<path d="M21.1333 25.8931H17V29.949H21.1333V25.8931Z" fill="black"/>
</svg>
